<svg width="401" height="401" viewBox="0 0 401 401" fill="none" xmlns="http://www.w3.org/2000/svg">
  <path fill-rule="evenodd" clip-rule="evenodd"
    d="M107.241 10.4814C82.0612 14.9973 61.3224 25.5331 43.8907 42.6645C27.3041 58.9654 20.0271 70.4742 12.6783 92.0246C5.18026 114.013 5.10272 141.502 12.4767 163.484C23.7354 197.049 53.5734 225.56 87.8563 235.511C100.716 239.244 113.38 238.989 126.44 238.421C137.742 237.934 150.357 233.583 160.433 228.66C169.97 224 178.695 218.171 186.807 211.376C186.807 211.376 207.8 235.325 216.682 245.856C240.327 273.894 254.04 282.355 275.888 282.382C288.743 282.398 301.011 278.614 311.976 271.252C320.908 265.255 323.826 260.915 323.85 253.593C323.881 244.028 316.13 235.681 306.572 235.681C294.913 235.681 287.907 247.227 275.888 247.31C268.665 247.36 266.683 245.61 261.427 242.464C257.471 240.096 252.729 235.599 245.713 227.562C240.187 221.231 235.688 215.448 235.688 215.448C235.688 215.448 248.018 206.562 255.05 203.379C283.396 190.551 311.502 196.111 333.952 218.991C343.3 228.518 347.267 234.108 350.86 242.811C359.253 263.144 358.638 285.791 349.143 306.077C339.383 326.932 321.078 343.283 299.065 350.81C284.838 355.675 264.054 356.174 250.688 351.972C224.917 343.869 206.676 324.448 199.774 297.764C199.163 295.399 197.669 288.531 197.641 282.501C197.612 276.47 198.257 271.537 198.257 271.537L163.146 266.696L162.448 275.07C161.609 285.131 162.318 293.727 165.017 306.266C173.661 346.412 203.909 377.279 245.137 388.027C255.51 390.731 257.86 390.99 272.012 391C289.008 391.012 296.554 389.833 311.75 384.796C320.06 382.042 333.376 375.495 339.787 371.012C384.091 340.033 403.24 286.643 387.626 237.619C382.12 220.331 373.744 206.911 359.788 193.016C329.345 162.709 277.766 149.639 238.088 170.268C228.396 174.629 211.434 186.258 211.434 186.258C211.434 186.258 204.48 179.768 202.109 176.991C200.773 175.425 197.8 171.964 195.504 169.299C190.222 163.17 184.843 156.776 180.113 151.003C173.371 142.776 165.096 133.57 155.919 127.755C137.997 116.401 119.471 114.634 99.9785 122.422C85.7433 128.109 79.1409 133.942 78.067 141.778C76.7556 151.343 81.848 159.534 90.6331 161.994C96.0638 163.514 98.2649 163.011 108.695 157.861C116.774 153.873 127.876 151.296 136.318 156.011C148.058 162.563 155.853 174.181 164.614 184.148C152.227 195.014 137.009 202 120.441 203.324C96.0948 205.269 72.0858 193.036 55.9926 170.488C46.6927 157.458 42.714 144.483 42.7014 127.144C42.6946 118.068 43.1492 114.432 45.1507 107.55C51.3693 86.1616 62.9934 70.3201 81.6279 57.8393C103.87 42.9426 134.779 40.2874 158.668 51.2215C184.785 63.177 202.278 90.6475 201.659 118.739V129.082C205.519 129.501 236.315 132.632 236.315 132.632C236.602 132.345 236.828 126.305 236.817 119.209C236.775 91.6931 228.999 69.133 212.504 48.6776C191.995 23.2451 160.461 8.739 126.257 9.00356C120.063 9.05104 111.506 9.71583 107.241 10.4814Z"
    fill="url(#paint0_linear_27_140)" />
  <defs>
    <linearGradient id="paint0_linear_27_140" x1="45.2098" y1="45.2567" x2="358.223" y2="351.537"
      gradientUnits="userSpaceOnUse">
      <stop stop-color="#fff" />
      <stop offset="1" stop-color="#fff" />
    </linearGradient>
  </defs>
</svg>